<?xml version="1.0" encoding="utf-8"?>
<!-- Generator: Adobe Illustrator 18.1.1, SVG Export Plug-In . SVG Version: 6.00 Build 0)  -->
<!DOCTYPE svg PUBLIC "-//W3C//DTD SVG 1.1//EN" "http://www.w3.org/Graphics/SVG/1.1/DTD/svg11.dtd">
<svg version="1.1" id="Layer_1" xmlns="http://www.w3.org/2000/svg" xmlns:xlink="http://www.w3.org/1999/xlink" x="0px" y="0px"
	 viewBox="0 0 100 100" enable-background="new 0 0 100 100" xml:space="preserve">
<path fill="#FF0000" d="M50,30.5L50,30.5c-1,0-1.8-0.8-1.8-1.8v-22c0-1,0.8-1.8,1.8-1.8l0,0c1,0,1.8,0.8,1.8,1.8v22
	C51.8,29.6,51,30.5,50,30.5z"/>
<path fill="#FF0000" d="M50,96.3L50,96.3c-1,0-1.8-0.8-1.8-1.8v-22c0-1,0.8-1.8,1.8-1.8l0,0c1,0,1.8,0.8,1.8,1.8v22
	C51.8,95.5,51,96.3,50,96.3z"/>
<path fill="#FF0000" d="M70.1,50.6L70.1,50.6c0-1,0.8-1.8,1.8-1.8h22c1,0,1.8,0.8,1.8,1.8v0c0,1-0.8,1.8-1.8,1.8h-22
	C70.9,52.4,70.1,51.6,70.1,50.6z"/>
<path fill="#FF0000" d="M4.2,50.6L4.2,50.6c0-1,0.8-1.8,1.8-1.8h22c1,0,1.8,0.8,1.8,1.8v0c0,1-0.8,1.8-1.8,1.8h-22
	C5,52.4,4.2,51.6,4.2,50.6z"/>
<path fill="#FF0000" d="M64.2,36.3L64.2,36.3c-0.7-0.7-0.7-1.9,0-2.6l15.6-15.6c0.7-0.7,1.9-0.7,2.6,0v0c0.7,0.7,0.7,1.9,0,2.6
	L66.8,36.3C66.1,37.1,64.9,37.1,64.2,36.3z"/>
<path fill="#FF0000" d="M17.6,82.9L17.6,82.9c-0.7-0.7-0.7-1.9,0-2.6l15.6-15.6c0.7-0.7,1.9-0.7,2.6,0l0,0c0.7,0.7,0.7,1.9,0,2.6
	L20.2,82.9C19.5,83.6,18.4,83.6,17.6,82.9z"/>
<path fill="#FF0000" d="M64.2,64.8L64.2,64.8c0.7-0.7,1.9-0.7,2.6,0l15.6,15.6c0.7,0.7,0.7,1.9,0,2.6l0,0c-0.7,0.7-1.9,0.7-2.6,0
	L64.2,67.4C63.5,66.7,63.5,65.5,64.2,64.8z"/>
<path fill="#FF0000" d="M17.6,18.2L17.6,18.2c0.7-0.7,1.9-0.7,2.6,0l15.6,15.6c0.7,0.7,0.7,1.9,0,2.6l0,0c-0.7,0.7-1.9,0.7-2.6,0
	L17.6,20.8C16.9,20.1,16.9,18.9,17.6,18.2z"/>
</svg>
