<?xml version="1.0" encoding="utf-8"?>
<!-- Generator: Adobe Illustrator 19.2.1, SVG Export Plug-In . SVG Version: 6.00 Build 0)  -->
<!DOCTYPE svg PUBLIC "-//W3C//DTD SVG 1.1//EN" "http://www.w3.org/Graphics/SVG/1.1/DTD/svg11.dtd">
<svg version="1.1" id="Layer_1" xmlns="http://www.w3.org/2000/svg" xmlns:xlink="http://www.w3.org/1999/xlink" x="0px" y="0px"
	 viewBox="0 0 800 600" enable-background="new 0 0 800 600" xml:space="preserve">
<rect width="10.8" height="600"/>
<rect x="32.7" width="56.6" height="600"/>
<rect x="111.2" width="40.2" height="600"/>
<rect x="184.3" width="143" height="600"/>
<rect x="710.5" width="37.8" height="600"/>
<rect x="774.8" width="20.7" height="600"/>
<rect x="346.8" width="18.5" height="600"/>
<rect x="381.5" width="18.5" height="600"/>
<rect x="416.2" width="18.5" height="600"/>
<rect x="450.9" width="18.5" height="600"/>
<rect x="476.8" width="4.5" height="600"/>
<rect x="485.6" width="4.5" height="600"/>
<rect x="494.5" width="4.5" height="600"/>
<rect x="503.3" width="4.5" height="600"/>
<rect x="512.1" width="4.5" height="600"/>
<rect x="521" width="4.5" height="600"/>
<rect x="565.2" width="18.5" height="600"/>
<rect x="599.9" width="18.5" height="600"/>
<rect x="625.8" width="4.5" height="600"/>
<rect x="634.6" width="4.5" height="600"/>
<rect x="643.5" width="4.5" height="600"/>
<rect x="652.3" width="4.5" height="600"/>
<rect x="661.1" width="4.5" height="600"/>
<rect x="670" width="4.5" height="600"/>
</svg>
